<svg width="1662" height="1024" xmlns="http://www.w3.org/2000/svg" class="icon">

 <g>
  <title>background</title>
  <rect fill="none" id="canvas_background" height="402" width="582" y="-1" x="-1"/>
 </g>
 <g>
  <title>Layer 1</title>
  <path id="svg_3" fill="#B5D9FE" d="m483.2881,587.41693l76.08187,-62.80976l52.05112,46.73163l74.8052,-32.84779l84.9255,36.74431l72.43803,-38.56623l78.76821,39.9892l70.93527,-39.53704l78.54213,38.64602l88.90182,-51.1601l60.45589,50.62815l-7.52706,365.00946l-730.39127,0l0.01329,-352.82785z"/>
  <path id="svg_4" fill="#2082F1" d="m640.30587,753.79699a22.90036,22.84717 0 1 0 45.80073,0a22.90036,22.84717 0 1 0 -45.80073,0z"/>
  <path id="svg_5" fill="#B5D9FE" d="m507.300223,121.61662l671.83709,0l0,76.16167l-671.83709,0l0,-76.16167z"/>
  <path id="svg_6" fill="#2082F1" d="m621.10254,650.90494l0,251.47844l130.02141,0l0,-251.47844l-130.02141,0zm0,-26.59741l130.02141,0a26.5974,26.5974 0 0 1 26.5974,26.59741l0,251.47844a26.5974,26.5974 0 0 1 -26.5974,26.5974l-130.02141,0a26.5974,26.5974 0 0 1 -26.5974,-26.5974l0,-251.47844a26.5974,26.5974 0 0 1 26.5974,-26.59741z"/>
  <path stroke="null" id="svg_7" fill="#2082F1" d="m235.981488,950.053922a13.2987,13.2987 0 1 1 0,-26.5974l1080.93174,0a13.2987,13.2987 0 1 1 0,26.5974l-1080.91844,0l-0.0133,0zm1158.75574,0a13.2987,13.2987 0 1 1 0,-26.5974l67.03876,0a13.2987,13.2987 0 1 1 0,26.5974l-67.02546,0l-0.0133,0z"/>
  <path id="svg_8" fill="#FFFFFF" d="m882.63481,624.30753l234.94815,0l0,152.33663l-234.94815,0l0,-152.33663z"/>
  <path id="svg_9" fill="#B5D9FE" d="m1024.9708,672.91429a6.64935,6.64935 0 0 1 9.38889,9.42877l-46.89122,46.78484a6.64935,6.64935 0 0 1 -9.40218,-9.41548l46.90451,-46.78484l0,-0.01329zm47.33008,-1.50276a6.64935,6.64935 0 1 1 9.38889,9.41548l-47.80884,47.70244a6.64935,6.64935 0 0 1 -9.38888,-9.41548l47.80883,-47.70244z"/>
  <path id="svg_10" fill="#2082F1" d="m897.91501,778.57247l217.69974,0l0,-140.96624l-217.69974,0l0,140.96624zm244.29715,0l10.79854,0a13.2987,13.2987 0 0 1 0,26.5974l-295.59023,0a13.2987,13.2987 0 1 1 0,-26.5974l13.89714,0l0,-154.26494a13.2987,13.2987 0 0 1 13.2987,-13.2987l244.29715,0a13.2987,13.2987 0 0 1 13.2987,13.2987l0,154.26494z"/>
  <path id="svg_11" fill="#2082F1" d="m1214.11823,563.97132l26.59741,-0.15958l0,331.37704a39.8961,39.8961 0 0 1 -39.89611,39.8961l-691.1601,0a39.8961,39.8961 0 0 1 -39.8961,-39.8961l0,-326.53631l26.5974,0l0,326.53631a13.2987,13.2987 0 0 0 13.2987,13.2987l691.1601,0a13.2987,13.2987 0 0 0 13.2987,-13.2987l0,-331.21746zm26.59741,-0.15958l0,331.37704a39.8961,39.8961 0 0 1 -39.89611,39.8961l-691.1601,0a39.8961,39.8961 0 0 1 -39.8961,-39.8961l0,-326.53631l26.5974,0l0,326.53631a13.2987,13.2987 0 0 0 13.2987,13.2987l691.1601,0a13.2987,13.2987 0 0 0 13.2987,-13.2987l0,-331.21746l26.59741,-0.15958z"/>
  <path id="svg_16" fill="#B5D9FE" d="m402.13943,431.50296l99.2881,-220.51906l104.99325,0l-54.09912,234.08374l-150.18223,-13.56468zm311.06992,0l21.91626,-220.51906l104.97995,0l23.29932,234.08374l-150.19553,-13.56468zm290.39044,0l-19.86826,-220.51906l104.97995,0l65.07055,234.08374l-150.18224,-13.56468z"/>
  <path id="svg_17" fill="#2082F1" d="m514.22088,132.98701l0,68.6745l664.44302,0l0,-68.6745l-664.44302,0zm0,-26.5974l664.44302,0a26.5974,26.5974 0 0 1 26.5974,26.5974l0,68.6745a26.5974,26.5974 0 0 1 -26.5974,26.5974l-664.44302,0a26.5974,26.5974 0 0 1 -26.5974,-26.5974l0,-68.6745a26.5974,26.5974 0 0 1 26.5974,-26.5974z"/>
  <path id="svg_18" fill="#2082F1" d="m508.71522,224.01662l-94.66015,204.64042l871.3442,0l-105.80447,-204.64042l-670.87958,0zm0,-26.5974l670.87958,0a26.5974,26.5974 0 0 1 23.6318,14.3759l105.81776,204.64041a26.5974,26.5974 0 0 1 -23.63179,38.81891l-871.33091,0a26.5974,26.5974 0 0 1 -24.15044,-37.76831l94.66016,-204.64042a26.5974,26.5974 0 0 1 24.13714,-15.42649l-0.0133,0z"/>
  <path id="svg_19" fill="#B5D9FE" d="m396.00873,426.28987l165.36935,8.76384l-1.66234,62.67678a83.01049,83.01049 0 0 1 -82.9174,80.82951a80.72312,80.72312 0 0 1 -80.78961,-80.73642l0,-71.54701l0,0.0133zm290.11117,0l183.2162,0l0,60.70857a91.61475,91.61475 0 1 1 -183.2295,0l0,-60.70857l0.0133,0zm305.37807,15.22701l152.68239,0l0,60.74847a76.33455,76.33455 0 1 1 -152.68239,0l0,-60.74847z"/>
  <path id="svg_20" fill="#2082F1" d="m1174.71418,426.28987l137.42878,0l0,68.35533a83.9813,83.9813 0 0 1 -154.49101,45.61454a91.49506,91.49506 0 0 1 -74.55252,38.35345a91.52166,91.52166 0 0 1 -76.33455,-40.96a91.52166,91.52166 0 0 1 -76.34784,40.96a91.52166,91.52166 0 0 1 -76.33455,-40.96a91.52166,91.52166 0 0 1 -76.36114,40.96a91.49506,91.49506 0 0 1 -74.53922,-38.34015a83.91481,83.91481 0 0 1 -70.50971,38.34015a83.9547,83.9547 0 0 1 -73.43543,-43.22077a91.61475,91.61475 0 0 1 -169.42546,-48.40728l0,-60.69527l784.90265,0zm0,26.5974l0,34.11117a91.89403,91.89403 0 0 1 -2.39376,20.91886a57.41049,57.41049 0 0 0 113.22514,-13.2854l0,-41.75793l-110.83138,0l0,0.0133zm-30.53382,0l-122.14857,0l0,34.11117c0,5.90462 -0.55854,11.67626 -1.62244,17.26172a65.04395,65.04395 0 0 0 124.64873,2.52675a84.67283,84.67283 0 0 1 -0.87772,-12.15501l0,-41.75793l0,0.0133zm-151.07324,51.37289a92.09351,92.09351 0 0 1 -1.60915,-17.26172l0,-34.11117l-122.16187,0l0,34.11117c0,5.90462 -0.55854,11.67626 -1.62244,17.26172a65.04395,65.04395 0 0 0 125.40676,0l-0.0133,0zm-154.30483,-51.37289l-122.13528,0l0,41.75792c0,4.1226 -0.30587,8.17871 -0.87771,12.14172a65.04395,65.04395 0 0 0 124.64873,-2.52675a92.09351,92.09351 0 0 1 -1.62245,-17.26172l0,-34.11117l-0.01329,0zm-150.28863,55.03003a91.89403,91.89403 0 0 1 -2.39376,-20.91886l0,-34.11117l-110.83138,0l0,41.75792a57.3839,57.3839 0 0 0 113.22514,13.27211zm-272.09143,-55.03003l0,34.11117a65.01735,65.01735 0 1 0 130.02141,0l0,-34.11117l-130.03471,0l0.0133,0z"/>
  <path id="svg_21" fill="#2082F1" d="m1022.48395,452.23564l-26.17185,4.73433l-41.55844,-229.56218l26.17185,-4.73434l41.55844,229.56219zm145.86015,-17.12873l-22.56789,15.62597l-73.32904,-228.77756l28.11345,-0.53194l67.78348,213.68353zm-299.80592,23.80467l-26.5974,0l0,-247.64841l26.5974,0l0,247.64841z"/>
  <path id="svg_22" fill="#B5D9FE" d="m547.06867,925.6428l-240.21444,0a55.45558,55.45558 0 0 1 -2.46026,-16.3574c0,-31.51792 26.37133,-57.07802 58.88665,-57.07802c6.70255,0 13.15242,1.09049 19.15013,3.08529c10.38629,-37.63532 45.82733,-65.34981 87.93102,-65.34981c50.26909,0 91.01631,39.49714 91.01631,88.21028c0,17.48779 -5.25299,33.7787 -14.30941,47.48966z"/>
  <path id="svg_23" fill="#2082F1" d="m548.07938,878.15314c0,-41.27917 -34.70961,-74.91158 -77.71761,-74.91158c-35.50754,0 -66.14774,23.12644 -75.11107,55.58857a13.2987,13.2987 0 0 1 -17.02234,9.08301a47.21039,47.21039 0 0 0 -14.94774,-2.40706c-25.26753,0 -45.58794,19.68208 -45.58794,43.77932c0,1.024 0.03989,2.048 0.10638,3.0587l221.72925,0c5.58546,-10.46607 8.55107,-22.10244 8.55107,-34.19096zm-174.26618,-38.49974c15.78555,-37.52893 53.59376,-63.00924 96.54857,-63.00924c57.51688,0 104.31501,45.34857 104.31501,101.50898a99.11522,99.11522 0 0 1 -16.51699,54.81725a13.2987,13.2987 0 0 1 -11.09112,5.98442l-240.21444,0a13.2987,13.2987 0 0 1 -12.71355,-9.38889a68.75429,68.75429 0 0 1 -3.05871,-20.28052c0,-38.96519 32.42224,-70.37672 72.21195,-70.37672c3.53746,0 7.04831,0.25267 10.50598,0.74472l0.0133,0z"/>
  <path id="svg_24" fill="#B5D9FE" d="m292.46504,571.84416a77.93039,77.93039 0 0 1 66.04135,36.54483l13.09922,20.93215a187.31221,187.31221 0 0 1 24.49621,60.4958l0.73143,3.41776a96.68156,96.68156 0 0 1 -4.98702,56.46629a86.76073,86.76073 0 0 1 -36.7975,42.36966l-14.3493,8.35158a80.28426,80.28426 0 0 1 -80.15127,0.30587l-14.56208,-8.31168a91.45517,91.45517 0 0 1 -38.76572,-43.51336a96.13631,96.13631 0 0 1 -5.49236,-58.2882l0.82452,-3.76354c4.90722,-22.4482 12.46088,-44.24477 22.4881,-64.92426l5.47907,-11.27729a68.86068,68.86068 0 0 1 61.94535,-38.80561z"/>
  <path id="svg_25" fill="#2082F1" d="m292.46504,598.44156a42.26327,42.26327 0 0 0 -38.02099,23.80467l-5.47906,11.3039a264.69735,264.69735 0 0 0 -20.44011,58.97974l-0.82452,3.77683a69.53891,69.53891 0 0 0 3.98961,42.15688a64.85777,64.85777 0 0 0 27.48842,30.85299l14.56208,8.31169a53.68686,53.68686 0 0 0 53.59376,-0.19948l14.3626,-8.35159a60.16333,60.16333 0 0 0 25.50691,-29.39013a70.08416,70.08416 0 0 0 3.60395,-40.9201l-0.71813,-3.41777a160.71481,160.71481 0 0 0 -21.01195,-51.90483l-13.11252,-20.93215a51.33299,51.33299 0 0 0 -43.48675,-24.07065l-0.0133,0zm0.0133,-26.5974a77.93039,77.93039 0 0 1 66.04135,36.54483l13.09922,20.93215a187.31221,187.31221 0 0 1 24.49621,60.4958l0.73143,3.41776a96.68156,96.68156 0 0 1 -4.98702,56.46629a86.76073,86.76073 0 0 1 -36.7975,42.36966l-14.3493,8.35158a80.28426,80.28426 0 0 1 -80.15127,0.30587l-14.56208,-8.31168a91.45517,91.45517 0 0 1 -38.76572,-43.51336a96.13631,96.13631 0 0 1 -5.49236,-58.2882l0.82452,-3.76354c4.90722,-22.4482 12.46088,-44.24477 22.4881,-64.92426l5.47907,-11.27729a68.86068,68.86068 0 0 1 61.93205,-38.80561l0.0133,0z"/>
  <path id="svg_26" fill="#2082F1" d="m312.51948,719.27356l10.54587,-10.54587a13.2987,13.2987 0 0 1 18.80436,18.80436l-26.5974,26.5974a13.312,13.312 0 0 1 -2.75283,2.1278l0,160.34244a13.2987,13.2987 0 0 1 -26.5974,0l0,-229.20312a13.2987,13.2987 0 1 1 26.5974,0l0,31.87699z"/>
 </g>
</svg>